<?xml version="1.0" encoding="utf-8"?>
<svg version="1.1" xmlns="http://www.w3.org/2000/svg" xmlns:xlink="http://www.w3.org/1999/xlink">
	<symbol id="facebook-shares" viewBox="0 0 26 26.99">
		<path d="M19.67,18.05c-0.84,0-1.6,0.33-2.18,0.85l-7.92-4.58c0.06-0.25,0.1-0.51,0.1-0.77c0-0.27-0.04-0.52-0.1-0.77l7.83-4.54c0.6,0.55,1.39,0.89,2.27,0.89c1.84,0,3.33-1.48,3.33-3.31c0-1.83-1.49-3.31-3.33-3.31c-1.84,0-3.33,1.48-3.33,3.31c0,0.26,0.04,0.52,0.1,0.77L8.6,11.13c-0.6-0.55-1.39-0.89-2.27-0.89C4.49,10.23,3,11.72,3,13.55s1.49,3.31,3.33,3.31c0.88,0,1.67-0.34,2.27-0.89l7.91,4.58c-0.06,0.23-0.09,0.47-0.09,0.73c0,1.78,1.46,3.21,3.24,3.21c1.79,0,3.24-1.44,3.24-3.21C22.91,19.5,21.46,18.05,19.67,18.05z"/>
	</symbol>
	<symbol id="twitter-count" viewBox="0 0 26 22">
		<path d="M.5 18.7c10 6.2 22.7-.7 22.5-13 1-.7 1.9-1.6 2.6-2.7-1 .5-2 .8-3.1.9 1.14-.7 2-1.7 2.4-2.9-1 .6-2 1-3.3 1.3-4.3-4.13-10 .3-8.8 4.7-4.3-.2-8-2.3-10.6-5.4C1 4 1.5 7.1 3.9 8.5 3 8.4 2 8.2 1.5 7.8c0 2.6 1.8 4.6 4.1 5.1-.8.2-1.5.3-2.3.1.6 2 2.6 3.6 4.8 3.6-2 1.6-4.7 2.4-7.6 2.1z"/>
	</symbol>
	<symbol id="google-plus" viewBox="0 0 26 26.99">
		<path d="M26,12.28h-2.36V9.85h-2.36v2.43h-2.36v2.43h2.36v2.43h2.36v-2.43H26 M8.27,12.28v2.91H13c-0.24,1.21-1.42,3.64-4.73,3.64c-2.84,0-5.08-2.43-5.08-5.34c0-2.91,2.25-5.34,5.08-5.34c1.65,0,2.72,0.73,3.31,1.34l2.25-2.19C12.41,5.85,10.52,5,8.27,5C3.66,5,0,8.76,0,13.5C0,18.23,3.66,22,8.27,22c4.73,0,7.92-3.4,7.92-8.26c0-0.61,0-0.97-0.12-1.46H8.27z"/>
	</symbol>
	<symbol id="stumbleupon" viewBox="0 0 26 26.99">
		<path d="M13,3.5c-3.21,0-5.81,2.6-5.81,5.8v8.24c0,0.76-0.62,1.37-1.38,1.37c-0.76,0-1.38-0.62-1.38-1.37v-3.66H0v3.82c0,3.2,2.6,5.8,5.81,5.8c3.21,0,5.81-2.6,5.81-5.8V9.3c0-0.76,0.62-1.37,1.38-1.37s1.38,0.62,1.38,1.37v1.68l1.84,0.84l2.6-0.84V9.3C18.81,6.09,16.21,3.5,13,3.5z M14.38,13.96v3.74c0,3.2,2.6,5.8,5.81,5.8c3.21,0,5.81-2.6,5.81-5.8v-3.66h-4.44v3.66c0,0.76-0.62,1.37-1.38,1.37s-1.38-0.62-1.38-1.37v-3.74l-2.6,0.84L14.38,13.96z"/>
	</symbol>
	<symbol id="odnoklassniki" viewBox="0 0 26 26.99">
		<path d="M13,4.08c1.63,0,2.96,1.29,2.96,2.88c0,1.59-1.33,2.88-2.96,2.88c-1.63,0-2.96-1.29-2.96-2.88C10.04,5.38,11.37,4.08,13,4.08z M13,13.93c3.94,0,7.14-3.12,7.14-6.96C20.14,3.13,16.94,0,13,0C9.06,0,5.86,3.13,5.86,6.97C5.86,10.81,9.06,13.93,13,13.93 M15.89,19.61c1.45-0.32,2.86-0.88,4.15-1.67c0.98-0.6,1.27-1.86,0.66-2.81c-0.62-0.95-1.91-1.24-2.88-0.64c-2.92,1.79-6.69,1.79-9.61,0c-0.98-0.6-2.27-0.31-2.88,0.64c-0.62,0.95-0.32,2.21,0.66,2.81c1.29,0.79,2.69,1.35,4.14,1.67l-3.99,3.9c-0.82,0.8-0.82,2.09,0,2.89c0.41,0.4,0.94,0.6,1.48,0.6c0.54,0,1.07-0.2,1.48-0.6L13,22.57l3.92,3.83c0.82,0.8,2.14,0.8,2.96,0c0.82-0.8,0.82-2.09,0-2.89L15.89,19.61"/>
	</symbol>
	<symbol id="pinterest" viewBox="0 0 26 26.99">
		<path d="M14.21,18.75c-0.97,0-1.9-0.43-2.57-1.15l-1.16,4l-0.08,0.26l-0.04-0.02c-0.24,0.41-0.66,0.66-1.14,0.66c-0.73,0-1.33-0.62-1.33-1.38c0-0.06,0.01-0.12,0.02-0.18L7.9,20.93l0.06-0.22l2.24-6.95c0,0-0.24-0.76-0.24-1.84c0-2.15,1.13-2.8,2.02-2.8c0.9,0,1.73,0.33,1.73,1.64c0,1.68-1.09,2.54-1.09,3.74c0,0.94,0.74,1.69,1.63,1.69c2.84,0,3.85-2.19,3.85-4.25C18.1,9.21,15.81,7,13,7c-2.82,0-5.1,2.21-5.1,4.94c0,0.84,0.24,1.68,0.66,2.41c0.11,0.2,0.17,0.42,0.17,0.65c0,0.69-0.54,1.25-1.21,1.25c-0.43,0-0.83-0.25-1.05-0.62c-0.65-1.13-0.99-2.4-0.99-3.69C5.47,7.83,8.85,4.5,13,4.5s7.53,3.33,7.53,7.44C20.53,15.22,18.55,18.75,14.21,18.75z"/>
	</symbol>
	<symbol id="mailru" viewBox="0 0 26 26.99">
		<path d="M16.48,13.4c-0.11-2.24-1.77-3.59-3.77-3.59h-0.08c-2.31,0-3.59,1.83-3.59,3.89c0,2.32,1.55,3.79,3.58,3.79c2.27,0,3.76-1.67,3.87-3.64 M12.65,7.81c1.55,0,3,0.69,4.06,1.76l0,0c0-0.52,0.33-0.9,0.84-0.9h0.11c0.75,0,0.9,0.71,0.9,0.93v8.01c-0.04,0.53,0.55,0.79,0.88,0.45c1.28-1.31,2.81-6.78-0.8-9.95C15.27,5.15,10.76,5.64,8.35,7.3c-2.55,1.76-4.18,5.69-2.6,9.35c1.73,4.01,6.68,5.2,9.62,4.01c1.49-0.6,2.17,1.42,0.66,2.08c-2.36,1-8.86,0.9-11.9-4.38c-2.05-3.57-1.95-9.85,3.49-13.1c4.17-2.48,9.66-1.8,12.95,1.65c3.48,3.65,3.28,10.45-0.1,13.09c-1.53,1.2-3.8,0.03-3.78-1.72l-0.02-0.57c-1.06,1.06-2.48,1.68-4.03,1.68c-3.05,0-5.71-2.7-5.71-5.76C6.94,10.53,9.59,7.81,12.65,7.81z"/>
	</symbol>
	<symbol id="reddit" viewBox="0 0 26 26.99">
		<path d="M23,13.01c0-1.39-1.1-2.49-2.5-2.49c-0.6,0-1.2,0.2-1.6,0.6c-1.5-0.9-3.3-1.49-5.4-1.59l1.1-3.98L18,6.54c0,1.1,0.9,1.99,2,1.99c1.1,0,2-0.89,2-1.99s-0.9-1.99-2-1.99c-0.7,0-1.4,0.4-1.7,1l-4-1c-0.3-0.1-0.5,0.1-0.6,0.4l-1.2,4.58c-2,0.1-3.9,0.7-5.4,1.59c-0.4-0.4-1-0.6-1.6-0.6c-1.4,0-2.5,1.09-2.5,2.49c0,0.9,0.4,1.59,1.1,2.09L4,16c0,3.58,4,6.47,9,6.47s9-2.89,9-6.47l-0.1-0.9C22.6,14.6,23,13.91,23,13.01 M10,13.31c0.7,0,1.2,0.6,1.2,1.19S10.7,15.7,10,15.7s-1.2-0.5-1.2-1.19S9.3,13.31,10,13.31 M16.8,18.68c-1.8,1.09-5.8,1.09-7.6,0c-0.2-0.2-0.3-0.5-0.1-0.7c0.2-0.2,0.5-0.3,0.7-0.1c1.2,0.9,5.2,0.9,6.4,0c0.2-0.2,0.5-0.1,0.7,0.1C17.1,18.19,17,18.49,16.8,18.68 M16,15.7c-0.7,0-1.2-0.6-1.2-1.19c0-0.7,0.6-1.19,1.2-1.19c0.7,0,1.2,0.6,1.2,1.19C17.2,15.2,16.7,15.7,16,15.7z"/>
	</symbol>
	<symbol id="buffer" viewBox="0 0 26 26.99">
		<path d="M13.6,4.59c2.66,1.21,5.39,2.48,8.04,3.69c0.15,0.07,0.34,0.12,0.34,0.31c0,0.2-0.19,0.24-0.34,0.3c-2.65,1.21-5.35,2.46-8.02,3.66c-0.41,0.21-0.83,0.21-1.24,0c-2.68-1.21-5.37-2.45-8.04-3.67c-0.14-0.06-0.32-0.11-0.32-0.3c0-0.18,0.18-0.23,0.31-0.28c2.68-1.23,5.42-2.5,8.11-3.72C12.73,4.46,13.3,4.47,13.6,4.59 M13,22.5c-0.2,0-0.34-0.08-0.62-0.18c-2.68-1.21-5.37-2.45-8.03-3.67c-0.14-0.07-0.33-0.11-0.33-0.31c0-0.2,0.19-0.23,0.34-0.3c0.44-0.21,0.89-0.41,1.33-0.62c0.45-0.2,0.89-0.2,1.33,0.01c1.79,0.81,3.56,1.63,5.34,2.44c0.44,0.21,0.88,0.2,1.32,0c1.78-0.82,3.55-1.63,5.32-2.45c0.44-0.2,0.87-0.21,1.29-0.01c0.48,0.21,0.95,0.43,1.42,0.65c0.07,0.03,0.14,0.07,0.2,0.12c0.13,0.1,0.13,0.26,0,0.34c-0.08,0.06-0.17,0.11-0.26,0.15c-2.64,1.24-5.31,2.44-7.97,3.64C13.46,22.4,13.19,22.5,13,22.5 M13,17.62c-0.1,0-0.45-0.1-0.64-0.17c-2.67-1.23-5.35-2.45-8-3.68c-0.14-0.06-0.34-0.11-0.34-0.3c0-0.21,0.2-0.24,0.35-0.31c0.45-0.22,0.9-0.42,1.35-0.63c0.43-0.19,0.86-0.19,1.3,0.03c1.78,0.8,3.57,1.63,5.37,2.45c0.41,0.19,0.83,0.19,1.25,0c1.8-0.83,3.59-1.65,5.4-2.48c0.41-0.19,0.83-0.19,1.25,0c0.47,0.22,0.95,0.43,1.42,0.65c0.06,0.03,0.13,0.06,0.19,0.11c0.14,0.11,0.14,0.25-0.01,0.37c-0.05,0.04-0.12,0.07-0.18,0.1c-2.7,1.25-5.39,2.48-8.08,3.7C13.42,17.55,13.08,17.62,13,17.62z"/>
	</symbol>
	<symbol id="linkedin" viewBox="0 0 26 26.99">
		<path d="M22,22.5h-4v-6.75c0-1.06-1.19-1.94-2.25-1.94c-1.06,0-1.75,0.88-1.75,1.94v6.75h-4v-12h4v2c0.66-1.07,2.36-1.76,3.5-1.76c2.5,0,4.5,2.04,4.5,4.51V22.5 M8,22.5H4v-12h4V22.5 M6,4.5c1.1,0,2,0.9,2,2s-0.9,2-2,2c-1.1,0-2-0.9-2-2S4.9,4.5,6,4.5z"/>
	</symbol>
	<symbol id="vkontakte" viewBox="0 0 26 26.99">
		<path d="M21.99,15.97c1.85,1.7,2.23,2.52,2.29,2.62c0.76,1.25-0.83,1.35-0.83,1.35l-3.07,0.05c0,0-0.67,0.13-1.52-0.46c-1.15-0.78-2.26-2.82-3.08-2.55c-0.85,0.27-0.82,2.1-0.82,2.1s0,0.26-0.19,0.46c-0.21,0.22-0.63,0.14-0.63,0.14h-1.37c0,0-3.04,0.31-5.69-2.45c-2.92-3-5.49-8.91-5.49-8.91S1.43,7.97,1.58,7.77c0.18-0.19,0.68-0.19,0.68-0.19h3.29c0,0,0.32,0,0.52,0.19c0.18,0.13,0.29,0.4,0.29,0.4s0.52,1.31,1.24,2.52c1.37,2.35,2,2.86,2.44,2.61c0.71-0.37,0.51-3.32,0.51-3.32s0.01-1.08-0.35-1.55c-0.27-0.37-0.8-0.48-1.02-0.51C8.99,7.9,9.3,7.47,9.69,7.27c0.6-0.28,1.63-0.28,2.87-0.28c0.96,0,1.24,0.07,1.61,0.15c1.14,0.27,0.75,1.32,0.75,3.83c0,0.82-0.12,1.93,0.44,2.32c0.25,0.17,0.87,0.02,2.42-2.56c0.71-1.23,1.26-2.68,1.26-2.68s0.12-0.25,0.3-0.37c0.19-0.09,0.45-0.09,0.45-0.09h3.45c0,0,1.05-0.12,1.21,0.34c0.18,0.48-0.39,1.63-1.81,3.49C20.34,14.48,20.07,14.2,21.99,15.97z"/>
	</symbol>
	<symbol id="facebook-comments" viewBox="0 0 26 26.99">
		<path d="M10,23.5c-0.55,0-1-0.45-1-1v-3H5c-1.1,0-2-0.9-2-2v-12c0-1.11,0.9-2,2-2h16c1.1,0,2,0.9,2,2v12c0,1.1-0.9,2-2,2h-6.1l-3.7,3.71c-0.2,0.19-0.45,0.29-0.7,0.29l0,0H10 M18,12.5v-2h-2v2H18 M14,12.5v-2h-2v2H14 M10,12.5v-2H8v2H10z"/>
	</symbol>
	<symbol id="facebook-likes" viewBox="0 0 26 26.99">
		<path d="M24,12.5c0-1.11-0.9-2-2-2h-6.32l0.96-4.57c0.02-0.1,0.03-0.21,0.03-0.32c0-0.41-0.17-0.79-0.44-1.06L15.17,3.5l-6.58,6.58C8.22,10.45,8,10.95,8,11.5v10c0,1.1,0.9,2,2,2h9c0.83,0,1.54-0.5,1.84-1.22l3.02-7.05C23.95,15,24,14.76,24,14.5v-1.92V12.5 M2,23.5h4v-12H2V23.5z"/>
	</symbol>
	<symbol id="lock" viewBox="0 0 24 24">
		<path d="M12,17A2,2 0 0,0 14,15C14,13.89 13.1,13 12,13A2,2 0 0,0 10,15A2,2 0 0,0 12,17M18,8A2,2 0 0,1 20,10V20A2,2 0 0,1 18,22H6A2,2 0 0,1 4,20V10C4,8.89 4.9,8 6,8H7V6A5,5 0 0,1 12,1A5,5 0 0,1 17,6V8H18M12,3A3,3 0 0,0 9,6V8H15V6A3,3 0 0,0 12,3Z" />
	</symbol>
	<symbol id="loading" viewBox="0 0 20 20">
		<path d="M19.305,9.61c-0.235-0.235-0.615-0.235-0.85,0l-1.339,1.339c0.045-0.311,0.073-0.626,0.073-0.949 c0-3.812-3.09-6.901-6.901-6.901c-2.213,0-4.177,1.045-5.44,2.664l0.897,0.719c1.053-1.356,2.693-2.232,4.543-2.232 c3.176,0,5.751,2.574,5.751,5.751c0,0.342-0.037,0.675-0.095,1l-1.746-1.39c-0.234-0.235-0.614-0.235-0.849,0c-0.235,0.235-0.235,0.615,0,0.85l2.823,2.25c0.122,0.121,0.282,0.177,0.441,0.172c0.159,0.005,0.32-0.051,0.44-0.172l2.25-2.25C19.539,10.225,19.539,9.845,19.305,9.61z M10.288,15.752c-3.177,0-5.751-2.575-5.751-5.752c0-0.276,0.025-0.547,0.062-0.813l1.203,1.203c0.235,0.234,0.615,0.234,0.85,0c0.234-0.235,0.234-0.615,0-0.85l-2.25-2.25C4.281,7.169,4.121,7.114,3.961,7.118C3.802,7.114,3.642,7.169,3.52,7.291l-2.824,2.25c-0.234,0.235-0.234,0.615,0,0.85c0.235,0.234,0.615,0.234,0.85,0l1.957-1.559C3.435,9.212,3.386,9.6,3.386,10c0,3.812,3.09,6.901,6.902,6.901c2.083,0,3.946-0.927,5.212-2.387l-0.898-0.719C13.547,14.992,12.008,15.752,10.288,15.752z">
	</symbol>
	<symbol id="tools" viewBox="0 0 502.664 502.664">
		<path d="M479.165,406.394l0.324-0.194L309.403,235.424l77.202-77.202l68.962-44.436l27.416-49.289l-31.86-31.903l-49.289,27.46l-44.479,68.94l-77.116,77.137l-76.512-76.835l-0.345-101.491L99.649,0L88.54,11.023l55.178,55.113L89.92,120.041L34.785,64.95l-11.109,10.98l27.848,103.755l98.708,0.259l-0.604,0.647l77.957,78.28l-28.819,28.84l-18.918-18.874l-29.164,29.185l9.06,9.017c-26.208,10.03-98.514,82.357-108.566,108.523l-9.017-9.038l-29.121,29.185l66.956,66.956l29.185-29.207l-9.103-9.06c26.209-9.966,98.557-82.336,108.566-108.501l9.038,9.081l29.164-29.207l-18.874-18.896l28.754-28.754l169.999,170.668l0.302-0.216c14.496,14.021,37.619,14.043,51.791-0.28C493.143,444.035,493.186,420.954,479.165,406.394z M465.166,444.552c-6.385,6.385-16.696,6.45-23.145,0c-6.277-6.385-6.385-16.631-0.043-23.102c6.493-6.385,16.761-6.385,23.189,0C471.615,427.813,471.615,438.124,465.166,444.552z"/>
	</symbol>
</svg>
